<?xml version="1.0" encoding="UTF-8" standalone="no"?>
<!-- Created with Inkscape (http://www.inkscape.org/) -->

<svg
   xmlns:dc="http://purl.org/dc/elements/1.1/"
   xmlns:cc="http://creativecommons.org/ns#"
   xmlns:rdf="http://www.w3.org/1999/02/22-rdf-syntax-ns#"
   xmlns:svg="http://www.w3.org/2000/svg"
   xmlns="http://www.w3.org/2000/svg"
   xmlns:sodipodi="http://sodipodi.sourceforge.net/DTD/sodipodi-0.dtd"
   xmlns:inkscape="http://www.inkscape.org/namespaces/inkscape"
   width="37mm"
   height="26mm"
   viewBox="0 0 131.10236 92.125983"
   id="svg6085"
   version="1.1"
   inkscape:version="0.91 r13725"
   sodipodi:docname="Comment.svg">
  <defs
     id="defs6087" />
  <sodipodi:namedview
     id="base"
     pagecolor="#ffffff"
     bordercolor="#666666"
     borderopacity="1.0"
     inkscape:pageopacity="0.0"
     inkscape:pageshadow="2"
     inkscape:zoom="2.8"
     inkscape:cx="279.7994"
     inkscape:cy="-36.650045"
     inkscape:document-units="px"
     inkscape:current-layer="layer1"
     showgrid="false"
     inkscape:window-width="1920"
     inkscape:window-height="1017"
     inkscape:window-x="-8"
     inkscape:window-y="-8"
     inkscape:window-maximized="1"
     showguides="true"
     inkscape:guide-bbox="true" />
  <metadata
     id="metadata6090">
    <rdf:RDF>
      <cc:Work
         rdf:about="">
        <dc:format>image/svg+xml</dc:format>
        <dc:type
           rdf:resource="http://purl.org/dc/dcmitype/StillImage" />
        <dc:title></dc:title>
      </cc:Work>
    </rdf:RDF>
  </metadata>
  <g
     inkscape:label="Laag 1"
     inkscape:groupmode="layer"
     id="layer1"
     transform="translate(0,-960.23623)">
    <path
       style="opacity:1;fill:#6c5353;fill-opacity:0.94509804;fill-rule:nonzero;stroke:none;stroke-width:1.58158517;stroke-miterlimit:4;stroke-dasharray:1.58158517, 3.16317034;stroke-dashoffset:0;stroke-opacity:1"
       d=""
       id="path6839"
       inkscape:connector-curvature="0"
       transform="translate(0,960.23623)" />
    <rect
       style="opacity:1;fill:#6c5353;fill-opacity:0.94509804;fill-rule:nonzero;stroke:none;stroke-width:1.58158517;stroke-miterlimit:4;stroke-dasharray:1.58158517, 3.16317034;stroke-dashoffset:0;stroke-opacity:1"
       id="rect6848-2"
       width="39.74712"
       height="4.4076204"
       x="34.447559"
       y="983.87006"
       ry="1.0372483" />
    <rect
       style="opacity:1;fill:#6c5353;fill-opacity:0.94509804;fill-rule:nonzero;stroke:none;stroke-width:1.58158517;stroke-miterlimit:4;stroke-dasharray:1.58158517, 3.16317034;stroke-dashoffset:0;stroke-opacity:1"
       id="rect6848-2-1"
       width="80.55471"
       height="4.4076204"
       x="35.051315"
       y="993.90906"
       ry="1.0372483" />
    <rect
       style="opacity:1;fill:#6c5353;fill-opacity:0.94509804;fill-rule:nonzero;stroke:none;stroke-width:1.58158517;stroke-miterlimit:4;stroke-dasharray:1.58158517, 3.16317034;stroke-dashoffset:0;stroke-opacity:1"
       id="rect6848-2-9"
       width="50.461407"
       height="4.4076204"
       x="-85.25779"
       y="-1010.3805"
       ry="1.0372483"
       transform="scale(-1,-1)" />
    <path
       style="opacity:1;fill:#6c5353;fill-opacity:0.94509804;fill-rule:nonzero;stroke:none;stroke-width:1.58158517;stroke-miterlimit:4;stroke-dasharray:1.58158517, 3.16317034;stroke-dashoffset:0;stroke-opacity:1"
       d="m 21.628189,1030.1745 c -0.159747,-4.0881 0.05561,-63.80399 0.230526,-63.94159 0.159984,-0.1258 15.414791,-0.1989 41.513451,-0.1989 l 41.260524,0 10.68539,3.6264 c 5.87694,1.9945 10.92418,3.671 11.21608,3.7256 0.42254,0.079 0.50885,5.8925 0.42339,28.52059 l -0.10736,28.4214 -52.605964,0.052 c -41.942807,0.042 -75.20185361,21.6053 -75.20990161,21.3997 z m 98.653981,-28.8045 -0.006,-25.76899 -9.25868,-3.1376 -9.25872,-3.1376 -36.673384,0 -36.673388,0 0,28.9066 -1.226745,32.01459 -17.6014656,14.0964 27.3868356,-11.9763 37.378983,-5.2281 45.937604,0 -0.006,-25.769 -1e-5,0 z"
       id="path9401"
       inkscape:connector-curvature="0"
       sodipodi:nodetypes="ccscscsccccccccccccccccccc" />
    <path
       style="opacity:1;fill:#ffffff;fill-opacity:0.94509804;fill-rule:nonzero;stroke:none;stroke-width:1.58158517;stroke-miterlimit:4;stroke-dasharray:1.58158517, 3.16317034;stroke-dashoffset:0;stroke-opacity:1"
       d="m -238.4392,979.65931 0,-40.27753 24.81554,0 24.81553,0 6.23094,4.30829 6.23096,4.30829 0.0133,35.96924 0.0133,35.9692 -31.05979,0 -31.05978,0 0,-40.27749 z m 47.66596,20.87129 c 0.26472,-0.319 0.41872,-1.4222 0.34965,-2.5049 l -0.12342,-1.9348 -20.21299,-0.1039 c -15.90474,-0.082 -20.28128,0 -20.5334,0.4008 -0.49327,0.777 -0.39114,3.6925 0.14824,4.2319 0.36102,0.361 5.39506,0.4809 20.18989,0.4809 16.55165,0 19.78474,-0.091 20.18203,-0.57 z m -12.22631,-7.6745 c 0.66103,-0.661 0.84644,-3.2176 0.2962,-4.0845 -0.25103,-0.3954 -3.4277,-0.4831 -14.52183,-0.4007 l -14.20051,0.1054 -0.1233,2.1663 c -0.0832,1.4617 0.0471,2.2744 0.40077,2.4987 0.28824,0.1828 6.5979,0.3351 14.02148,0.3385 11.74145,0.01 13.57934,-0.076 14.12719,-0.6237 z m 19.62355,-8.4203 c 0.41395,-1.0787 0.26825,-3.5893 -0.23766,-4.09518 -0.36295,-0.36294 -6.15569,-0.48093 -23.61274,-0.48093 -12.7225,0 -23.41708,0.10947 -23.76575,0.24327 -0.46617,0.17888 -0.63393,0.79754 -0.63393,2.33784 0,1.152 0.12023,2.2148 0.26718,2.3617 0.14695,0.147 10.94848,0.2672 24.00341,0.2672 21.27462,0 23.76145,-0.066 23.97949,-0.6339 z m 0.1631,-7.46166 c 0.62293,-0.62293 0.62293,-3.62525 0,-4.24818 -0.36314,-0.36314 -6.2489,-0.48092 -24.03218,-0.48092 -22.87426,0 -23.56319,0.0223 -23.96613,0.77519 -0.22818,0.42636 -0.41487,1.24978 -0.41487,1.82982 0,0.58004 0.18669,1.40346 0.41487,1.82982 0.40294,0.75291 1.09187,0.77519 23.96613,0.77519 17.78328,0 23.66904,-0.11778 24.03218,-0.48092 z m 0.089,-8.33605 c 0.59931,-0.94885 0.45489,-3.48677 -0.23781,-4.17947 -0.54708,-0.54708 -2.36625,-0.62978 -13.85296,-0.62978 -8.34866,0 -13.50894,0.15293 -13.99838,0.41487 -1.06497,0.56995 -1.12036,4.14937 -0.0739,4.77147 0.45747,0.27194 5.40987,0.38338 14.24233,0.32049 11.52828,-0.0821 13.59741,-0.18577 13.92066,-0.69758 z m -0.0859,-9.58058 c 0.0832,-1.46171 -0.0471,-2.27442 -0.40078,-2.49868 -0.88442,-0.56092 -39.75485,-0.42954 -40.32067,0.13627 -0.62474,0.62474 -0.62215,3.62603 0.004,4.25184 0.36884,0.36884 5.27478,0.45978 20.53954,0.38073 l 20.05496,-0.10385 0.1233,-2.16631 z"
       id="path12918"
       inkscape:connector-curvature="0" />
  </g>
</svg>
